<?xml version="1.0" encoding="utf-8"?>
<svg id="master-artboard" viewBox="0 0 1400 980" version="1.1" xmlns="http://www.w3.org/2000/svg" x="0px" y="0px" style="enable-background:new 0 0 1400 980;" width="1400px" height="980px"><g transform="matrix(2.9030613899230957, 0, 0, 2.9030613899230957, -1623.571288987994, -1374.9998783022165)"><rect id="ee-background" x="0" y="0" width="1400" height="980" style="fill: white; fill-opacity: 0; pointer-events: none;"/><g transform="matrix(0.5307836532592772, 0, 0, 0.5307836532592772, 573.7825236471042, 504.15633856113186)"><g>
	<path d="M307.666,206.875h-15V122.5h-7.5V92.383l-22.199-38.848V0h-15v52.481l-22.801,39.902V122.5h-7.5v84.375h-15V407.5h105   V206.875z M277.666,137.5V175h-45v-37.5H277.666z M240.166,96.367l15-26.25l15,26.25V122.5h-30V96.367z M232.666,190h45v16.875h-45   V190z M292.666,392.5h-30V385h-15v7.5h-30V221.875h75V392.5z" style="fill: rgb(255, 255, 255);"/>
	<path d="M 217.666 422.5 H 292.666 V 437.5 H 217.666 V 422.5 Z" style="fill: rgb(255, 255, 255);"/>
	<path d="M 240.166 452.5 H 270.166 V 467.5 H 240.166 V 452.5 Z" style="fill: rgb(255, 255, 255);"/>
	<path d="M512.041,490c0-20.678-16.822-37.5-37.5-37.5c-3.524,0-6.932,0.499-10.168,1.412C458.37,431.531,437.916,415,413.666,415   c-26.487,0-48.442,19.72-51.987,45.247c-23.554,1.648-45.473,11.607-62.333,28.466l-4.393,4.393   c-2.833,2.833-6.6,4.394-10.607,4.394h-5.68c-8.271,0-15-6.729-15-15h-15c0,8.271-6.729,15-15,15h-5.68   c-4.007,0-7.773-1.561-10.607-4.394l-4.393-4.393c-16.859-16.859-38.778-26.819-62.333-28.466   C147.109,434.72,125.153,415,98.666,415c-24.262,0-44.724,16.547-50.716,38.945c-3.27-0.934-6.717-1.445-10.284-1.445   c-20.678,0-37.5,16.822-37.5,37.5v22h15v-22c0-12.407,10.093-22.5,22.5-22.5s22.5,10.093,22.5,22.5h15   c0-11.54-5.243-21.875-13.468-28.759C64.688,443.533,80.122,430,98.666,430c20.678,0,37.5,16.822,37.5,37.5V490h15v-14.653   c19.347,1.721,37.312,10.072,51.213,23.973l4.393,4.393c5.667,5.667,13.2,8.787,21.213,8.787h5.68   c8.954,0,16.998-3.948,22.5-10.188c5.502,6.241,13.546,10.188,22.5,10.188h5.68c8.013,0,15.547-3.121,21.213-8.787l4.393-4.393   c13.901-13.901,31.866-22.251,51.213-23.973V490h15v-22.5c0-20.678,16.822-37.5,37.5-37.5c18.512,0,33.923,13.486,36.951,31.147   c-8.288,6.884-13.576,17.262-13.576,28.853h15c0-12.407,10.093-22.5,22.5-22.5s22.5,10.093,22.5,22.6l0.293,22l14.999-0.2   L512.041,490z" style="fill: rgb(255, 255, 255);"/>
	<path d="M 247.666 355 H 262.666 V 370 H 247.666 V 355 Z" style="fill: rgb(255, 255, 255);"/>
	<path d="M 247.666 325 H 262.666 V 340 H 247.666 V 325 Z" style="fill: rgb(255, 255, 255);"/>
</g></g><path d="M 1.0299999713897705 26.420000076293945 L 4.369999885559082 25.84000015258789 L 4.369999885559082 9.989999771118164 L 1.0299999713897705 9.420000076293945 L 1.0299999713897705 6.809999465942383 L 8 6.809999465942383 L 8.260000228881836 9.700000762939453 C 8.973333358764648 8.64666748046875 9.890000343322754 7.833333969116211 11.010000228881836 7.260000228881836 C 12.130000114440918 6.686666488647461 13.430000305175781 6.399999618530273 14.90999984741211 6.399999618530273 C 16.383333206176758 6.399999618530273 17.649999618530273 6.74333381652832 18.709999084472656 7.430000305175781 C 19.770000457763672 8.110000610351562 20.566667556762695 9.133333206176758 21.100000381469727 10.5 C 21.799999237060547 9.246665954589844 22.72333335876465 8.25 23.8700008392334 7.510000228881836 C 25.016666412353516 6.770000457763672 26.356666564941406 6.399999618530273 27.889999389648438 6.399999618530273 C 30.156665802001953 6.399999618530273 31.946666717529297 7.176666259765625 33.2599983215332 8.729999542236328 C 34.573333740234375 10.283332824707031 35.22999954223633 12.616666793823242 35.22999954223633 15.729999542236328 L 35.22999954223633 25.84000015258789 L 38.58000183105469 26.420000076293945 L 38.58000183105469 29 L 27.829999923706055 29 L 27.829999923706055 26.420000076293945 L 31.170000076293945 25.84000015258789 L 31.170000076293945 15.6899995803833 C 31.170000076293945 13.50333309173584 30.793333053588867 11.956666946411133 30.040000915527344 11.049999237060547 C 29.293333053588867 10.136667251586914 28.18000030517578 9.680000305175781 26.700000762939453 9.680000305175781 C 25.293333053588867 9.680000305175781 24.163333892822266 10.176666259765625 23.309999465942383 11.170000076293945 C 22.456666946411133 12.163333892822266 21.959999084472656 13.40999984741211 21.81999969482422 14.90999984741211 L 21.81999969482422 25.84000015258789 L 25.15999984741211 26.420000076293945 L 25.15999984741211 29 L 14.4399995803833 29 L 14.4399995803833 26.420000076293945 L 17.780000686645508 25.84000015258789 L 17.780000686645508 15.6899995803833 C 17.780000686645508 13.609999656677246 17.393333435058594 12.09000015258789 16.6200008392334 11.129999160766602 C 15.84666633605957 10.163333892822266 14.729999542236328 9.680000305175781 13.270000457763672 9.680000305175781 C 12.036666870117188 9.680000305175781 11.023333549499512 9.933332443237305 10.229999542236328 10.440000534057617 C 9.436666488647461 10.946666717529297 8.829999923706055 11.656665802001953 8.40999984741211 12.569999694824219 L 8.40999984741211 25.84000015258789 L 11.75 26.420000076293945 L 11.75 29 L 1.0299999713897705 29 L 1.0299999713897705 26.420000076293945 ZM 50.5020637512207 29.43000030517578 C 47.408729553222656 29.43000030517578 44.94873046875 28.399999618530273 43.12206268310547 26.34000015258789 C 41.30206298828125 24.286666870117188 40.39206314086914 21.619998931884766 40.39206314086914 18.34000015258789 L 40.39206314086914 17.43000030517578 C 40.39206314086914 14.276666641235352 41.33206558227539 11.649999618530273 43.212066650390625 9.549999237060547 C 45.092063903808594 7.450000762939453 47.315399169921875 6.399999618530273 49.88206481933594 6.399999618530273 C 52.862064361572266 6.399999618530273 55.12206268310547 7.303333282470703 56.66206359863281 9.110000610351562 C 58.202064514160156 10.90999984741211 58.97206497192383 13.316666603088379 58.97206497192383 16.329999923706055 L 58.97206497192383 18.850000381469727 L 44.57206344604492 18.850000381469727 L 44.51206588745117 18.950000762939453 C 44.55206298828125 21.08333396911621 45.092063903808594 22.836666107177734 46.13206481933594 24.209999084472656 C 47.17206573486328 25.58333396911621 48.62873077392578 26.270000457763672 50.5020637512207 26.270000457763672 C 51.86873245239258 26.270000457763672 53.06873321533203 26.0766658782959 54.10206604003906 25.690000534057617 C 55.12873077392578 25.296667098999023 56.01873016357422 24.760000228881836 56.772064208984375 24.079999923706055 L 58.35206604003906 26.700000762939453 C 57.55873107910156 27.46666717529297 56.508731842041016 28.113332748413086 55.202064514160156 28.639999389648438 C 53.8953971862793 29.16666603088379 52.328731536865234 29.43000030517578 50.5020637512207 29.43000030517578 M 49.88206481933594 9.579999923706055 C 48.52873229980469 9.579999923706055 47.375396728515625 10.149999618530273 46.42206573486328 11.290000915527344 C 45.462066650390625 12.430000305175781 44.87206268310547 13.863333702087402 44.65206527709961 15.59000015258789 L 44.69206619262695 15.6899995803833 L 54.932064056396484 15.6899995803833 L 54.932064056396484 15.15999984741211 C 54.932064056396484 13.573333740234375 54.50539779663086 12.246665954589844 53.65206527709961 11.180000305175781 C 52.805397033691406 10.113332748413086 51.54873275756836 9.579999923706055 49.88206481933594 9.579999923706055 ZM 61.54432678222656 9.420000076293945 L 61.54432678222656 6.809999465942383 L 68.49432373046875 6.809999465942383 L 68.88432312011719 10.030000686645508 C 69.51099395751953 8.89666748046875 70.2843246459961 8.00666618347168 71.2043228149414 7.3600006103515625 C 72.13098907470703 6.719999313354492 73.18766021728516 6.399999618530273 74.37432861328125 6.399999618530273 C 74.68766021728516 6.399999618530273 75.01432800292969 6.423334121704102 75.35432434082031 6.469999313354492 C 75.68766021728516 6.516666412353516 75.94432067871094 6.569999694824219 76.12432861328125 6.629999160766602 L 75.5843276977539 10.379999160766602 L 73.29432678222656 10.260000228881836 C 72.2276611328125 10.260000228881836 71.33099365234375 10.50666618347168 70.60432434082031 11 C 69.87765502929688 11.5 69.31765747070312 12.203332901000977 68.92432403564453 13.109999656677246 L 68.92432403564453 25.84000015258789 L 72.26432800292969 26.420000076293945 L 72.26432800292969 29 L 61.54432678222656 29 L 61.54432678222656 26.420000076293945 L 64.88432312011719 25.84000015258789 L 64.88432312011719 9.989999771118164 L 61.54432678222656 9.420000076293945 Z" transform="matrix(3.5039918422698975, 0, 0, 3.5039918422698975, 746.0586547851562, 618.4111328125)" style="fill: rgb(255, 255, 255); white-space: pre; color: rgb(51, 51, 51);"/><path d="M 702.482177734375 645.4830322265625" style="fill: rgb(51, 51, 51); fill-opacity: 1; stroke: rgb(0, 0, 0); stroke-opacity: 1; stroke-width: 0; paint-order: fill;"/><path d="M 8.300000190734863 0.06999969482421875 L 8.300000190734863 5.069999694824219 L 12.220000267028809 5.069999694824219 L 12.220000267028809 7.869998931884766 L 8.300000190734863 7.869998931884766 L 8.300000190734863 20.459999084472656 C 8.300000190734863 21.426666259765625 8.5 22.106666564941406 8.899999618530273 22.5 C 9.300000190734863 22.899999618530273 9.833333015441895 23.099998474121094 10.5 23.099998474121094 C 10.833333015441895 23.099998474121094 11.206666946411133 23.06999969482422 11.619999885559082 23.009998321533203 C 12.033333778381348 22.9566650390625 12.380000114440918 22.896665573120117 12.65999984741211 22.829999923706055 L 13.180000305175781 25.420000076293945 C 12.819999694824219 25.646665573120117 12.296667098999023 25.833332061767578 11.609999656677246 25.979999542236328 C 10.916666984558105 26.126665115356445 10.226666450500488 26.19999885559082 9.539999961853027 26.19999885559082 C 8.006667137145996 26.19999885559082 6.7866668701171875 25.736665725708008 5.880000114440918 24.809999465942383 C 4.973333358764648 23.883333206176758 4.519999980926514 22.433332443237305 4.519999980926514 20.459999084472656 L 4.519999980926514 7.869998931884766 L 1.25 7.869998931884766 L 1.25 5.069999694824219 L 4.519999980926514 5.069999694824219 L 4.519999980926514 0.06999969482421875 L 8.300000190734863 0.06999969482421875 Z" transform="matrix(3.5682759284973145, 0, 0, 3.5682759284973145, 624.5926513671875, 628.279541015625)" style="fill: rgb(255, 255, 255); white-space: pre; color: rgb(51, 51, 51);"/></g></svg>