<?xml version="1.0" encoding="utf-8"?>
<svg id="master-artboard" viewBox="0 0 1400 980" version="1.1" xmlns="http://www.w3.org/2000/svg" x="0px" y="0px" style="enable-background:new 0 0 1400 980;" width="1400px" height="980px"><g transform="matrix(10.434413119049587, 0, 0, 10.434413119049587, 209.99999900851623, -0.000015754530920730758)"><g>
	<g>
		<path d="M56.863,43.814c0.945-1.741,1.445-3.713,1.445-5.704c0-6.604-5.373-11.977-11.979-11.977&#10;&#9;&#9;&#9;c-6.604,0-11.977,5.373-11.977,11.977c0,2.208,0.618,4.376,1.786,6.271c2.203,3.573,6.013,5.706,10.19,5.706&#10;&#9;&#9;&#9;C50.73,50.085,54.767,47.684,56.863,43.814z M46.332,28.131c5.5,0,9.978,4.476,9.978,9.977c0,1.184-0.213,2.36-0.617,3.463&#10;&#9;&#9;&#9;c-0.316-0.297-0.646-0.575-0.988-0.838c-0.092-0.071-0.188-0.132-0.282-0.2c-0.271-0.195-0.539-0.385-0.818-0.559&#10;&#9;&#9;&#9;c-0.141-0.087-0.285-0.164-0.43-0.245c-0.245-0.139-0.49-0.274-0.745-0.398c-0.157-0.077-0.319-0.148-0.483-0.219&#10;&#9;&#9;&#9;c-0.248-0.109-0.5-0.21-0.754-0.303c-0.168-0.061-0.338-0.12-0.508-0.175c-0.072-0.023-0.145-0.052-0.215-0.073l1.537-2.03&#10;&#9;&#9;&#9;c0.334-0.44,0.246-1.068-0.191-1.401c-0.441-0.335-1.068-0.246-1.4,0.193l-2.115,2.787c-0.082-0.01-0.164-0.023-0.248-0.031&#10;&#9;&#9;&#9;c-0.449-0.046-0.899-0.074-1.355-0.074c-0.49,0-0.975,0.031-1.453,0.084c-0.156,0.017-0.311,0.049-0.466,0.071&#10;&#9;&#9;&#9;c-0.32,0.047-0.64,0.097-0.953,0.167c-0.179,0.04-0.355,0.091-0.532,0.138c-0.284,0.076-0.565,0.156-0.842,0.25&#10;&#9;&#9;&#9;c-0.182,0.062-0.36,0.13-0.538,0.2c-0.266,0.104-0.528,0.216-0.786,0.337c-0.173,0.081-0.345,0.164-0.514,0.253&#10;&#9;&#9;&#9;c-0.258,0.135-0.509,0.282-0.757,0.435c-0.156,0.096-0.314,0.189-0.466,0.291c-0.263,0.177-0.515,0.37-0.766,0.567&#10;&#9;&#9;&#9;c-0.125,0.098-0.254,0.188-0.375,0.291c-0.344,0.291-0.675,0.6-0.991,0.928c-0.019,0.02-0.041,0.037-0.06,0.057&#10;&#9;&#9;&#9;c-0.002,0.002-0.003,0.003-0.005,0.005c-0.548-1.252-0.833-2.603-0.833-3.971C36.355,32.607,40.831,28.131,46.332,28.131z&#10;&#9;&#9;&#9; M46.332,48.085c-3.24,0-6.214-1.542-8.09-4.159c0.073-0.085,0.142-0.173,0.217-0.256c0.126-0.139,0.255-0.275,0.388-0.408&#10;&#9;&#9;&#9;c0.165-0.165,0.336-0.324,0.51-0.477c0.139-0.123,0.28-0.245,0.425-0.36c0.181-0.144,0.367-0.279,0.555-0.411&#10;&#9;&#9;&#9;c0.15-0.105,0.301-0.211,0.456-0.309c0.196-0.123,0.398-0.235,0.601-0.346c0.158-0.086,0.315-0.175,0.477-0.253&#10;&#9;&#9;&#9;c0.213-0.103,0.432-0.191,0.651-0.28c0.162-0.066,0.322-0.136,0.487-0.194c0.233-0.082,0.473-0.146,0.712-0.212&#10;&#9;&#9;&#9;c0.158-0.044,0.313-0.095,0.477-0.132c0.268-0.061,0.543-0.102,0.816-0.143c0.139-0.021,0.273-0.052,0.414-0.068&#10;&#9;&#9;&#9;c0.418-0.047,0.838-0.073,1.265-0.073c0.397,0,0.792,0.023,1.183,0.065c0.131,0.014,0.258,0.041,0.387,0.06&#10;&#9;&#9;&#9;c0.26,0.037,0.52,0.073,0.771,0.128c0.152,0.033,0.301,0.078,0.451,0.117c0.227,0.059,0.453,0.116,0.674,0.189&#10;&#9;&#9;&#9;c0.156,0.051,0.309,0.114,0.464,0.172c0.209,0.079,0.418,0.158,0.621,0.249c0.153,0.069,0.306,0.147,0.456,0.223&#10;&#9;&#9;&#9;c0.195,0.099,0.391,0.199,0.578,0.309c0.146,0.086,0.293,0.179,0.438,0.272c0.187,0.118,0.364,0.24,0.541,0.369&#10;&#9;&#9;&#9;c0.142,0.102,0.276,0.208,0.412,0.317c0.17,0.137,0.338,0.28,0.5,0.428c0.129,0.117,0.256,0.236,0.379,0.359&#10;&#9;&#9;&#9;c0.068,0.068,0.134,0.141,0.198,0.211C52.918,46.335,49.756,48.085,46.332,48.085z" style="fill-opacity: 1; fill: rgb(255, 255, 255); stroke: rgb(255, 255, 255);"/>
		<path d="M76.226,72.587c-0.4-10.037-4.452-19.297-11.127-25.522c0.604-2.656,0.924-5.362,0.924-8.057&#10;&#9;&#9;&#9;c0-12.838-6.854-24.756-17.912-31.269V1c0-0.552-0.447-1-1-1c-0.553,0-1,0.448-1,1v6.739c-11.056,6.513-17.91,18.432-17.91,31.269&#10;&#9;&#9;&#9;c0,2.617,0.301,5.246,0.87,7.826c-6.802,6.207-10.945,15.509-11.376,25.648c-0.019,0.446,0.261,0.854,0.687,0.992&#10;&#9;&#9;&#9;c3.671,1.209,7.49,1.819,11.352,1.819l0.45-0.01c0.401-0.007,0.761-0.248,0.914-0.617c1.431-3.451,4.713-6.244,8.92-7.688&#10;&#9;&#9;&#9;l-1.688,10.56c-3.806,0.338-6.858,3.321-7.299,7.103c-4.012,0.469-7.138,3.883-7.138,8.021c0,0.553,0.448,1,1,1&#10;&#9;&#9;&#9;c0.552,0,1-0.447,1-1c0-3.354,2.727-6.078,6.079-6.078c0.552,0,1-0.449,1-1c0-2.994,2.177-5.481,5.029-5.981l-0.554,3.465&#10;&#9;&#9;&#9;c-0.087,0.545,0.284,1.059,0.83,1.146c0.053,0.008,0.106,0.013,0.159,0.013c0.482,0,0.907-0.351,0.986-0.843l2.715-16.989&#10;&#9;&#9;&#9;c3.161-0.688,6.542-0.609,9.642,0.229l2.721,17.021c0.079,0.491,0.504,0.842,0.986,0.842c0.053,0,0.104-0.004,0.158-0.012&#10;&#9;&#9;&#9;c0.545-0.089,0.918-0.601,0.83-1.146l-0.555-3.466c2.854,0.5,5.026,2.988,5.026,5.98c0,0.553,0.449,1,1,1&#10;&#9;&#9;&#9;c3.354,0,6.08,2.729,6.08,6.078c0,0.553,0.445,1,1,1c0.552,0,1-0.447,1-1c0-4.135-3.127-7.551-7.142-8.021&#10;&#9;&#9;&#9;c-0.438-3.772-3.489-6.764-7.299-7.102l-1.674-10.475c3.766,1.52,6.624,4.121,7.956,7.311c0.149,0.355,0.489,0.594,0.875,0.613&#10;&#9;&#9;&#9;c0.579,0.025,1.159,0.043,1.743,0.043c3.76,0,7.475-0.576,11.043-1.715C75.959,73.441,76.243,73.038,76.226,72.587z&#10;&#9;&#9;&#9; M29.519,73.296c-3.322-0.021-6.61-0.521-9.787-1.489c0.553-8.912,4.112-17.08,9.888-22.757c0.059,0.207,0.134,0.406,0.196,0.609&#10;&#9;&#9;&#9;c0.1,0.325,0.205,0.649,0.314,0.975c0.176,0.521,0.365,1.035,0.563,1.548c0.119,0.305,0.236,0.612,0.363,0.916&#10;&#9;&#9;&#9;c0.231,0.549,0.48,1.086,0.737,1.62c0.119,0.248,0.228,0.498,0.352,0.742c0.391,0.771,0.805,1.526,1.251,2.267&#10;&#9;&#9;&#9;c0.036,0.063,0.078,0.116,0.114,0.176c0.414,0.682,0.851,1.346,1.31,1.992c0.166,0.235,0.345,0.461,0.516,0.692&#10;&#9;&#9;&#9;c0.347,0.47,0.701,0.933,1.072,1.383c0.208,0.255,0.424,0.503,0.64,0.753c0.363,0.418,0.734,0.827,1.117,1.231&#10;&#9;&#9;&#9;c0.23,0.239,0.462,0.481,0.699,0.719c0.143,0.142,0.275,0.291,0.42,0.433C34.818,66.654,31.272,69.618,29.519,73.296z&#10;&#9;&#9;&#9; M46.489,63.909c-1.674,0-3.334,0.186-4.941,0.549c-0.292-0.265-0.573-0.535-0.855-0.81c-0.292-0.278-0.591-0.557-0.872-0.848&#10;&#9;&#9;&#9;c-0.333-0.344-0.644-0.703-0.961-1.059c-0.264-0.301-0.537-0.592-0.79-0.896c-0.307-0.371-0.592-0.756-0.882-1.139&#10;&#9;&#9;&#9;c-0.236-0.311-0.482-0.613-0.706-0.932c-0.282-0.396-0.539-0.813-0.804-1.222c-0.206-0.319-0.423-0.633-0.618-0.956&#10;&#9;&#9;&#9;c-0.257-0.431-0.488-0.875-0.726-1.314c-0.174-0.322-0.36-0.637-0.524-0.965c-0.236-0.476-0.444-0.963-0.658-1.447&#10;&#9;&#9;&#9;c-0.137-0.311-0.288-0.611-0.416-0.926c-0.222-0.547-0.413-1.109-0.607-1.67c-0.092-0.265-0.2-0.523-0.286-0.791&#10;&#9;&#9;&#9;c-0.267-0.834-0.504-1.681-0.708-2.539c-0.621-2.614-0.936-5.287-0.936-7.944c0-12.128,6.464-23.399,16.911-29.555&#10;&#9;&#9;&#9;c10.447,6.156,16.912,17.427,16.912,29.555c0,2.729-0.334,5.474-0.989,8.158c-0.212,0.864-0.456,1.717-0.731,2.555&#10;&#9;&#9;&#9;c-0.086,0.265-0.192,0.519-0.286,0.779c-0.199,0.565-0.397,1.139-0.632,1.69c-0.131,0.314-0.284,0.619-0.427,0.935&#10;&#9;&#9;&#9;c-0.22,0.483-0.433,0.977-0.673,1.448c-0.168,0.33-0.359,0.646-0.538,0.974c-0.243,0.438-0.478,0.885-0.739,1.313&#10;&#9;&#9;&#9;c-0.202,0.33-0.427,0.646-0.641,0.973c-0.268,0.402-0.527,0.812-0.812,1.209c-0.231,0.32-0.485,0.631-0.731,0.943&#10;&#9;&#9;&#9;c-0.293,0.377-0.579,0.758-0.889,1.123c-0.262,0.311-0.541,0.604-0.814,0.901c-0.32,0.353-0.635,0.707-0.971,1.049&#10;&#9;&#9;&#9;c-0.287,0.291-0.592,0.566-0.893,0.849c-0.281,0.27-0.564,0.537-0.857,0.795C50.494,64.177,48.51,63.909,46.489,63.909z&#10;&#9;&#9;&#9; M63.452,73.277c-1.64-3.438-4.796-6.217-8.866-7.842c0.159-0.147,0.308-0.312,0.463-0.465c0.246-0.238,0.485-0.479,0.726-0.725&#10;&#9;&#9;&#9;c0.391-0.402,0.771-0.814,1.141-1.23c0.22-0.248,0.438-0.492,0.646-0.744c0.39-0.461,0.758-0.936,1.116-1.412&#10;&#9;&#9;&#9;c0.169-0.223,0.347-0.438,0.507-0.664c1.024-1.418,1.94-2.905,2.746-4.459c0.127-0.243,0.239-0.495,0.36-0.743&#10;&#9;&#9;&#9;c0.267-0.539,0.521-1.084,0.76-1.64c0.13-0.299,0.248-0.604,0.369-0.903c0.207-0.521,0.402-1.048,0.588-1.578&#10;&#9;&#9;&#9;c0.109-0.318,0.216-0.64,0.316-0.961c0.066-0.209,0.145-0.414,0.207-0.627c5.656,5.688,9.131,13.805,9.656,22.614&#10;&#9;&#9;&#9;C70.713,72.923,67.068,73.386,63.452,73.277z" style="fill-opacity: 1; fill: rgb(255, 255, 255); stroke: rgb(255, 255, 255);"/>
	</g>
</g><g>
</g><g>
</g><g>
</g><g>
</g><g>
</g><g>
</g><g>
</g><g>
</g><g>
</g><g>
</g><g>
</g><g>
</g><g>
</g><g>
</g><g>
</g></g></svg>