<?xml version="1.0" encoding="iso-8859-1"?>
<!-- Generator: Adobe Illustrator 16.0.0, SVG Export Plug-In . SVG Version: 6.00 Build 0)  -->
<!DOCTYPE svg PUBLIC "-//W3C//DTD SVG 1.1//EN" "http://www.w3.org/Graphics/SVG/1.1/DTD/svg11.dtd">
<svg version="1.1" id="Capa_1" xmlns="http://www.w3.org/2000/svg" xmlns:xlink="http://www.w3.org/1999/xlink" x="0px" y="0px"
	 width="896.15px" height="896.15px" viewBox="0 0 896.15 896.15" style="enable-background:new 0 0 896.15 896.15;"
	 xml:space="preserve">
<g>
	<path d="M565.65,537.727c9.836-45.773,15.408-98.106,15.408-153.699c0-110.484-19.464-196.042-53.142-269.977
		C506.818,67.729,478.591,0,450.902,0c-27.421,0-56.854,68.503-77.83,114.05c-34.021,73.852-52.321,158.826-52.321,269.977
		c0,53.134,5.096,103.289,14.124,147.587l-99.006,138.184V896.15l135.8-141.472h11.328v28.293h130.154v-28.293h11.328
		L660.281,896.15V669.797L565.65,537.727z M450.903,494.374c-28.128,0-50.929-22.801-50.929-50.93
		c0-28.128,22.802-50.93,50.929-50.93c28.13,0,50.931,22.802,50.931,50.93C501.834,471.573,479.032,494.374,450.903,494.374z
		 M450.903,330.268c-28.128,0-50.929-22.801-50.929-50.93c0-28.126,22.802-50.929,50.929-50.929
		c28.13,0,50.931,22.803,50.931,50.929C501.834,307.466,479.032,330.268,450.903,330.268z"/>
</g>
<g>
</g>
<g>
</g>
<g>
</g>
<g>
</g>
<g>
</g>
<g>
</g>
<g>
</g>
<g>
</g>
<g>
</g>
<g>
</g>
<g>
</g>
<g>
</g>
<g>
</g>
<g>
</g>
<g>
</g>
</svg>
